<svg xmlns="http://www.w3.org/2000/svg" viewBox="0 0 32 32" fill="none">
  <!-- Exact HelmMark geometry from the site nav (scaled 0.88, on ink background) -->
  <rect width="32" height="32" rx="7" fill="#05070d"/>
  <g transform="translate(16 16) scale(0.88) translate(-16 -16)">
    <circle cx="16" cy="16" r="13" stroke="#38A169" stroke-width="2.5"/>
    <circle cx="16" cy="16" r="5" fill="#38A169"/>
    <g stroke="#38A169" stroke-width="2.5" stroke-linecap="round">
      <line x1="16" y1="1" x2="16" y2="7"/>
      <line x1="16" y1="1" x2="16" y2="7" transform="rotate(45 16 16)"/>
      <line x1="16" y1="1" x2="16" y2="7" transform="rotate(90 16 16)"/>
      <line x1="16" y1="1" x2="16" y2="7" transform="rotate(135 16 16)"/>
      <line x1="16" y1="1" x2="16" y2="7" transform="rotate(180 16 16)"/>
      <line x1="16" y1="1" x2="16" y2="7" transform="rotate(225 16 16)"/>
      <line x1="16" y1="1" x2="16" y2="7" transform="rotate(270 16 16)"/>
      <line x1="16" y1="1" x2="16" y2="7" transform="rotate(315 16 16)"/>
    </g>
  </g>
</svg>
